<svg xmlns="http://www.w3.org/2000/svg" width="48" height="48" viewBox="0 0 48 48"><defs><style>.a{fill:none;}.b{fill:#aaa;}.c{fill:#dbdbdb;}</style></defs><rect class="a" width="48" height="48"/><g transform="translate(-201.042 -396.785)"><g transform="translate(205.042 367.768)"><path class="b" d="M27.488,151.262a7.464,7.464,0,1,1,0,14.9H5.823a5.826,5.826,0,0,1,0-11.651h.415A9.065,9.065,0,1,1,24.2,152.025a7.419,7.419,0,0,1,3.292-.763Z" transform="translate(0 -96.971)"/><path class="c" d="M141.476,39.754a.755.755,0,1,1-1.441.448q-.011-.035-.018-.071L139.187,37a.755.755,0,1,1,1.441-.448q.011.035.018.071ZM135.9,42.482a.756.756,0,1,1-1.074,1.066l-2.281-2.305a.755.755,0,1,1,1.074-1.049Zm19.227,12.929a.757.757,0,1,1,.415-1.455l3.126.854a.757.757,0,1,1-.415,1.455h0Zm.415-6.195a.755.755,0,0,1-.377-1.46l3.135-.829a.755.755,0,0,1,.377,1.46Zm-2.72-5.573a.758.758,0,0,1-1.07-1.074l2.305-2.281a.756.756,0,1,1,1.066,1.074Zm-5.154-3.45a.757.757,0,0,1-1.455-.415h0l.854-3.126a.757.757,0,1,1,1.455.415Zm-.829,3.732a7.9,7.9,0,0,1,3.587,11.817,7.464,7.464,0,0,0-7.687-.63,9.077,9.077,0,0,0-5.975-7.244A7.878,7.878,0,0,1,146.825,43.9Z" transform="translate(-118.561 0)"/></g></g></svg>