<svg xmlns="http://www.w3.org/2000/svg" xmlns:xlink="http://www.w3.org/1999/xlink" width="158" height="157" viewBox="0 0 158 157"><defs><style>.a{fill:#fff;}.b{clip-path:url(#a);}.c{opacity:0.74;}.d{fill:#4281ee;}</style><clipPath id="a"><rect class="a" width="158" height="157"/></clipPath></defs><g class="b"><g transform="translate(0.216 14.518)"><g class="c"><g transform="translate(18.511 37.023)"><path class="d" d="M66.141,51.4H19.862a4.628,4.628,0,1,1,0-9.256H66.141a4.628,4.628,0,0,1,0,9.256Z" transform="translate(-15.234 -42.148)"/></g><g transform="translate(139.453 55.534)"><circle class="d" cx="4.628" cy="4.628" r="4.628"/></g><g transform="translate(0 18.511)"><path class="d" d="M116.313,73.193H4.628a4.628,4.628,0,0,1,0-9.256H116.313A13.884,13.884,0,1,0,102.43,50.053a4.628,4.628,0,0,1-9.256,0,23.139,23.139,0,1,1,23.139,23.139Z" transform="translate(0 -26.914)"/></g><g transform="translate(74.046 74.046)"><path class="d" d="M126.344,109.64A18.543,18.543,0,0,1,108.888,97.3a4.628,4.628,0,0,1,8.727-3.084,9.257,9.257,0,1,0,8.73-12.342H65.565a4.628,4.628,0,1,1,0-9.256h60.779a18.511,18.511,0,0,1,0,37.023Z" transform="translate(-60.938 -72.617)"/></g><g transform="translate(46.278 92.557)"><path class="d" d="M89.609,97.107h-46.9a4.628,4.628,0,1,1,0-9.256h46.9a4.628,4.628,0,0,1,0,9.256Z" transform="translate(-38.086 -87.852)"/></g><g transform="translate(9.256 74.046)"><path class="d" d="M58.524,81.873H12.245a4.628,4.628,0,1,1,0-9.256H58.524a4.628,4.628,0,1,1,0,9.256Z" transform="translate(-7.617 -72.617)"/></g><g transform="translate(27.767 92.557)"><circle class="d" cx="4.628" cy="4.628" r="4.628"/></g><g transform="translate(0 37.023)"><circle class="d" cx="4.628" cy="4.628" r="4.628"/></g><g transform="translate(111.685 37.023)"><circle class="d" cx="4.628" cy="4.628" r="4.628"/></g><g transform="translate(148.708 18.511)"><circle class="d" cx="4.628" cy="4.628" r="4.628"/></g><g transform="translate(130.197)"><circle class="d" cx="4.628" cy="4.628" r="4.628"/></g><g transform="translate(74.046 18.511)"><circle class="d" cx="4.628" cy="4.628" r="4.628"/></g><g transform="translate(92.866 111.068)"><circle class="d" cx="4.628" cy="4.628" r="4.628"/></g><g transform="translate(120.633 120.324)"><circle class="d" cx="4.628" cy="4.628" r="4.628"/></g></g></g></g></svg>